<?xml version="1.0" encoding="UTF-8"?>
<!DOCTYPE svg PUBLIC "-//W3C//DTD SVG 1.1//EN" "http://www.w3.org/Graphics/SVG/1.1/DTD/svg11.dtd">
<svg xmlns="http://www.w3.org/2000/svg" version="1.1" width="512px" height="512px" style="shape-rendering:geometricPrecision; text-rendering:geometricPrecision; image-rendering:optimizeQuality; fill-rule:evenodd; clip-rule:evenodd" xmlns:xlink="http://www.w3.org/1999/xlink">
<g><path style="opacity:1" fill="#e6f91a" d="M 260.5,69.5 C 263.287,74.2877 265.621,79.2877 267.5,84.5C 265.985,90.5293 263.152,95.8627 259,100.5C 246.167,113.333 233.333,126.167 220.5,139C 200.567,153.497 180.234,154.164 159.5,141C 144.604,126.272 129.938,111.438 115.5,96.5C 120.021,89.4675 125.521,83.1341 132,77.5C 141.005,85.672 149.838,94.0053 158.5,102.5C 164.906,110.411 171.906,117.911 179.5,125C 186.373,128.512 193.04,128.179 199.5,124C 204.7,119.135 209.533,113.968 214,108.5C 216.248,102.655 215.915,96.9883 213,91.5C 205.911,83.9061 198.411,76.9061 190.5,70.5C 182.787,61.2807 174.453,52.4474 165.5,44C 170.865,38.3005 176.531,32.9672 182.5,28C 194.999,21.7545 207.332,22.0878 219.5,29C 233.035,42.7019 246.701,56.2019 260.5,69.5 Z"/></g>
<g><path style="opacity:1" fill="#9ca2a7" d="M 297.5,31.5 C 300.524,64.2856 311.19,94.2856 329.5,121.5C 328.311,122.429 326.978,122.762 325.5,122.5C 307.312,118.625 289.312,119.625 271.5,125.5C 269.589,124.925 267.922,123.925 266.5,122.5C 270.253,112.172 271.42,101.505 270,90.5C 269.434,88.2774 268.6,86.2774 267.5,84.5C 265.621,79.2877 263.287,74.2877 260.5,69.5C 261.496,69.5858 262.329,69.2524 263,68.5C 263.5,56.1712 263.667,43.8378 263.5,31.5C 274.833,31.5 286.167,31.5 297.5,31.5 Z"/></g>
<g><path style="opacity:1" fill="#afbaba" d="M 297.5,31.5 C 312.833,31.5 328.167,31.5 343.5,31.5C 343.333,43.8378 343.5,56.1712 344,68.5C 353.92,71.4202 363.42,75.4202 372.5,80.5C 381.319,72.1811 389.986,63.6811 398.5,55C 399.167,54.3333 399.833,54.3333 400.5,55C 419.347,73.6805 438.014,92.5138 456.5,111.5C 447.833,120.5 439.167,129.5 430.5,138.5C 435.213,147.471 439.046,156.804 442,166.5C 454.42,167.489 466.92,167.822 479.5,167.5C 479.5,182.833 479.5,198.167 479.5,213.5C 446.006,210.489 415.506,199.489 388,180.5C 387.601,180.728 387.435,181.062 387.5,181.5C 376.57,151.57 355.904,131.903 325.5,122.5C 326.978,122.762 328.311,122.429 329.5,121.5C 311.19,94.2856 300.524,64.2856 297.5,31.5 Z"/></g>
<g><path style="opacity:1" fill="#9ca2a7" d="M 190.5,70.5 C 198.411,76.9061 205.911,83.9061 213,91.5C 215.915,96.9883 216.248,102.655 214,108.5C 209.533,113.968 204.7,119.135 199.5,124C 193.04,128.179 186.373,128.512 179.5,125C 171.906,117.911 164.906,110.411 158.5,102.5C 169.5,92.1667 180.167,81.5 190.5,70.5 Z"/></g>
<g><path style="opacity:1" fill="#f9bb01" d="M 267.5,84.5 C 268.6,86.2774 269.434,88.2774 270,90.5C 271.42,101.505 270.253,112.172 266.5,122.5C 264.442,124.927 262.609,127.593 261,130.5C 246.833,144.667 232.667,158.833 218.5,173C 215.593,174.609 212.927,176.442 210.5,178.5C 188.752,186.926 169.418,183.26 152.5,167.5C 140.869,155.368 129.035,143.368 117,131.5C 111.799,122.846 110.133,113.513 112,103.5C 112.67,100.826 113.837,98.4927 115.5,96.5C 129.938,111.438 144.604,126.272 159.5,141C 180.234,154.164 200.567,153.497 220.5,139C 233.333,126.167 246.167,113.333 259,100.5C 263.152,95.8627 265.985,90.5293 267.5,84.5 Z"/></g>
<g><path style="opacity:1" fill="#e1962a" d="M 266.5,122.5 C 267.922,123.925 269.589,124.925 271.5,125.5C 273.5,127.833 275.5,130.167 277.5,132.5C 276.421,141.572 272.921,149.572 267,156.5C 261.833,161.667 256.667,166.833 251.5,172C 275.5,196 299.5,220 323.5,244C 331.941,242.964 339.941,240.297 347.5,236C 354.279,231.718 360.612,226.884 366.5,221.5C 372.833,227.5 379.167,233.5 385.5,239.5C 373.754,268.61 352.754,286.277 322.5,292.5C 300.5,270.167 278.5,247.833 256.5,225.5C 245.448,213.446 233.781,202.113 221.5,191.5C 220.833,190.167 219.833,189.167 218.5,188.5C 216.213,184.878 213.547,181.545 210.5,178.5C 212.927,176.442 215.593,174.609 218.5,173C 232.667,158.833 246.833,144.667 261,130.5C 262.609,127.593 264.442,124.927 266.5,122.5 Z"/></g>
<g><path style="opacity:1" fill="#f9ba00" d="M 277.5,132.5 C 307.5,161.833 337.167,191.5 366.5,221.5C 360.612,226.884 354.279,231.718 347.5,236C 339.941,240.297 331.941,242.964 323.5,244C 299.5,220 275.5,196 251.5,172C 256.667,166.833 261.833,161.667 267,156.5C 272.921,149.572 276.421,141.572 277.5,132.5 Z"/></g>
<g><path style="opacity:1" fill="#9ca2a7" d="M 152.5,167.5 C 169.418,183.26 188.752,186.926 210.5,178.5C 213.547,181.545 216.213,184.878 218.5,188.5C 217.659,190.379 217.325,192.379 217.5,194.5C 216.833,194.5 216.5,194.833 216.5,195.5C 213.232,239.151 231.232,270.317 270.5,289C 273.432,290.145 276.432,290.978 279.5,291.5C 287.173,293.545 294.839,294.878 302.5,295.5C 273.833,295.5 245.167,295.5 216.5,295.5C 207.579,311.675 198.912,328.008 190.5,344.5C 189.167,342.5 187.5,340.833 185.5,339.5C 173.855,327.521 162.188,315.521 150.5,303.5C 159.167,294.5 167.833,285.5 176.5,276.5C 171.394,267.679 167.56,258.346 165,248.5C 152.201,248.175 139.701,247.175 127.5,245.5C 127.5,228.167 127.5,210.833 127.5,193.5C 127.5,184.833 127.5,176.167 127.5,167.5C 135.833,167.5 144.167,167.5 152.5,167.5 Z"/></g>
<g><path style="opacity:1" fill="#9ca2a8" d="M 479.5,213.5 C 479.5,224.833 479.5,236.167 479.5,247.5C 466.92,247.178 454.42,247.511 442,248.5C 439.046,258.196 435.213,267.529 430.5,276.5C 439.167,285.5 447.833,294.5 456.5,303.5C 445.479,314.854 434.479,326.187 423.5,337.5C 417.944,324.033 412.611,310.367 407.5,296.5C 375.84,295.5 344.174,295.167 312.5,295.5C 312.167,295.5 311.833,295.5 311.5,295.5C 309.167,295.5 306.833,295.5 304.5,295.5C 310.455,294.829 316.455,293.829 322.5,292.5C 352.754,286.277 373.754,268.61 385.5,239.5C 391.339,220.356 392.005,201.023 387.5,181.5C 387.435,181.062 387.601,180.728 388,180.5C 415.506,199.489 446.006,210.489 479.5,213.5 Z"/></g>
<g><path style="opacity:1" fill="#8f9696" d="M 107.5,200.5 C 107.5,220.833 107.5,241.167 107.5,261.5C 98.6991,273.698 95.0324,287.364 96.5,302.5C 78.9856,292.32 64.3189,278.986 52.5,262.5C 54.7757,254.839 58.1091,247.672 62.5,241C 56.1667,234.667 49.8333,228.333 43.5,222C 55,210.5 66.5,199 78,187.5C 84.3333,193.833 90.6667,200.167 97,206.5C 100.283,204.109 103.783,202.109 107.5,200.5 Z"/></g>
<g><path style="opacity:1" fill="#656a70" d="M 221.5,191.5 C 233.781,202.113 245.448,213.446 256.5,225.5C 251.035,230.464 245.702,235.63 240.5,241C 246.162,250.163 250.329,259.996 253,270.5C 261.749,271.484 270.582,271.817 279.5,271.5C 279.5,278.167 279.5,284.833 279.5,291.5C 276.432,290.978 273.432,290.145 270.5,289C 231.232,270.317 213.232,239.151 216.5,195.5C 217.167,195.5 217.5,195.167 217.5,194.5C 218.833,193.5 220.167,192.5 221.5,191.5 Z"/></g>
<g><path style="opacity:1" fill="#646a70" d="M 127.5,193.5 C 127.5,210.833 127.5,228.167 127.5,245.5C 119.918,249.754 113.252,255.088 107.5,261.5C 107.5,241.167 107.5,220.833 107.5,200.5C 114.032,197.767 120.699,195.434 127.5,193.5 Z"/></g>
<g><path style="opacity:1" fill="#646a70" d="M 52.5,262.5 C 64.3189,278.986 78.9856,292.32 96.5,302.5C 101.062,328.228 116.062,344.061 141.5,350C 157.684,352.453 172.351,348.953 185.5,339.5C 187.5,340.833 189.167,342.5 190.5,344.5C 188.438,349.625 186.104,354.625 183.5,359.5C 156.775,364.912 130.108,370.578 103.5,376.5C 95.3018,377.871 87.3018,379.871 79.5,382.5C 74.2627,385.635 71.596,390.302 71.5,396.5C 62.035,387.536 52.7016,378.369 43.5,369C 49.8333,362.667 56.1667,356.333 62.5,350C 56.8377,340.837 52.6711,331.004 50,320.5C 41.2511,319.516 32.4178,319.183 23.5,319.5C 23.5,303.5 23.5,287.5 23.5,271.5C 32.1731,271.666 40.8397,271.5 49.5,271C 50.4241,268.135 51.4241,265.302 52.5,262.5 Z"/></g>
<g><path style="opacity:1" fill="#82cdf2" d="M 216.5,295.5 C 245.167,295.5 273.833,295.5 302.5,295.5C 303.167,295.5 303.833,295.5 304.5,295.5C 306.833,295.5 309.167,295.5 311.5,295.5C 311.5,316.833 311.5,338.167 311.5,359.5C 311.167,359.5 310.833,359.5 310.5,359.5C 279.167,338.167 247.833,316.833 216.5,295.5 Z"/></g>
<g><path style="opacity:1" fill="#83cdf2" d="M 312.5,295.5 C 344.174,295.167 375.84,295.5 407.5,296.5C 412.611,310.367 417.944,324.033 423.5,337.5C 426.538,344.269 429.204,351.269 431.5,358.5C 391.393,338.281 351.727,317.281 312.5,295.5 Z"/></g>
<g><path style="opacity:1" fill="#51b5e6" d="M 216.5,295.5 C 247.833,316.833 279.167,338.167 310.5,359.5C 268.167,359.5 225.833,359.5 183.5,359.5C 186.104,354.625 188.438,349.625 190.5,344.5C 198.912,328.008 207.579,311.675 216.5,295.5 Z"/></g>
<g><path style="opacity:1" fill="#51b5e7" d="M 311.5,295.5 C 311.833,295.5 312.167,295.5 312.5,295.5C 351.727,317.281 391.393,338.281 431.5,358.5C 431.5,358.833 431.5,359.167 431.5,359.5C 391.5,359.5 351.5,359.5 311.5,359.5C 311.5,338.167 311.5,316.833 311.5,295.5 Z"/></g>
<g><path style="opacity:1" fill="#d96363" d="M 183.5,359.5 C 225.833,359.5 268.167,359.5 310.5,359.5C 310.833,359.5 311.167,359.5 311.5,359.5C 351.5,359.5 391.5,359.5 431.5,359.5C 449.916,366.872 468.249,374.539 486.5,382.5C 487.484,385.428 487.817,388.428 487.5,391.5C 481.158,391.334 474.825,391.5 468.5,392C 463.465,395.013 462.298,399.18 465,404.5C 465.903,405.701 467.069,406.535 468.5,407C 474.825,407.5 481.158,407.666 487.5,407.5C 487.5,410.167 487.5,412.833 487.5,415.5C 480.825,415.666 474.158,415.5 467.5,415C 457.48,413.274 447.48,411.441 437.5,409.5C 425.578,396.076 410.578,390.076 392.5,391.5C 371.119,389.172 354.452,396.839 342.5,414.5C 313.485,415.893 284.485,415.726 255.5,414C 244.309,411.992 233.642,408.492 223.5,403.5C 218.997,399.745 213.997,396.745 208.5,394.5C 202.838,388.67 197.338,382.67 192,376.5C 188.626,371.086 185.793,365.419 183.5,359.5 Z"/></g>
<g><path style="opacity:1" fill="#ba4444" d="M 183.5,359.5 C 185.793,365.419 188.626,371.086 192,376.5C 197.338,382.67 202.838,388.67 208.5,394.5C 179.646,387.012 158.813,396.678 146,423.5C 145.71,425.952 145.044,428.285 144,430.5C 143.628,436.407 143.462,442.074 143.5,447.5C 119.5,447.5 95.5,447.5 71.5,447.5C 71.5,436.833 71.5,426.167 71.5,415.5C 78.5079,415.666 85.5079,415.5 92.5,415C 96.2748,413.389 99.2748,410.889 101.5,407.5C 102.09,406.234 102.59,404.901 103,403.5C 103.5,394.506 103.666,385.506 103.5,376.5C 130.108,370.578 156.775,364.912 183.5,359.5 Z"/></g>
<g><path style="opacity:1" fill="#e6f71a" d="M 103.5,376.5 C 103.666,385.506 103.5,394.506 103,403.5C 102.59,404.901 102.09,406.234 101.5,407.5C 87.7914,404.791 80.4581,396.457 79.5,382.5C 87.3018,379.871 95.3018,377.871 103.5,376.5 Z"/></g>
<g><path style="opacity:1" fill="#f9bb01" d="M 79.5,382.5 C 80.4581,396.457 87.7914,404.791 101.5,407.5C 99.2748,410.889 96.2748,413.389 92.5,415C 85.5079,415.5 78.5079,415.666 71.5,415.5C 71.5,409.167 71.5,402.833 71.5,396.5C 71.596,390.302 74.2627,385.635 79.5,382.5 Z"/></g>
<g><path style="opacity:1" fill="#e6f71b" d="M 276.5,383.5 C 283.841,383.334 291.174,383.5 298.5,384C 302.861,386.226 304.361,389.726 303,394.5C 302.167,396.667 300.667,398.167 298.5,399C 291.167,399.667 283.833,399.667 276.5,399C 271.465,395.987 270.298,391.82 273,386.5C 274.145,385.364 275.312,384.364 276.5,383.5 Z"/></g>
<g><path style="opacity:1" fill="#44444b" d="M 208.5,394.5 C 213.997,396.745 218.997,399.745 223.5,403.5C 236.181,415.71 241.515,430.377 239.5,447.5C 233.471,472.866 217.471,486.2 191.5,487.5C 165.529,486.2 149.529,472.866 143.5,447.5C 143.462,442.074 143.628,436.407 144,430.5C 145.044,428.285 145.71,425.952 146,423.5C 158.813,396.678 179.646,387.012 208.5,394.5 Z"/></g>
<g><path style="opacity:1" fill="#ba4444" d="M 392.5,391.5 C 363.639,399.275 349.972,417.942 351.5,447.5C 314.167,447.5 276.833,447.5 239.5,447.5C 241.515,430.377 236.181,415.71 223.5,403.5C 233.642,408.492 244.309,411.992 255.5,414C 284.485,415.726 313.485,415.893 342.5,414.5C 354.452,396.839 371.119,389.172 392.5,391.5 Z"/></g>
<g><path style="opacity:1" fill="#44444b" d="M 392.5,391.5 C 410.578,390.076 425.578,396.076 437.5,409.5C 445.299,421.223 448.632,433.89 447.5,447.5C 441.471,472.866 425.471,486.2 399.5,487.5C 373.529,486.2 357.529,472.866 351.5,447.5C 349.972,417.942 363.639,399.275 392.5,391.5 Z"/></g>
<g><path style="opacity:1" fill="#e6f81a" d="M 487.5,391.5 C 487.5,396.833 487.5,402.167 487.5,407.5C 481.158,407.666 474.825,407.5 468.5,407C 467.069,406.535 465.903,405.701 465,404.5C 462.298,399.18 463.465,395.013 468.5,392C 474.825,391.5 481.158,391.334 487.5,391.5 Z"/></g>
<g><path style="opacity:1" fill="#63696f" d="M 185.5,407.5 C 213.122,407.614 225.289,421.281 222,448.5C 218.061,461.725 209.228,469.225 195.5,471C 175.959,471.81 164.126,462.644 160,443.5C 159.401,424.948 167.901,412.948 185.5,407.5 Z"/></g>
<g><path style="opacity:1" fill="#63696f" d="M 393.5,407.5 C 421.122,407.614 433.289,421.281 430,448.5C 426.061,461.725 417.228,469.225 403.5,471C 383.959,471.81 372.126,462.644 368,443.5C 367.401,424.948 375.901,412.948 393.5,407.5 Z"/></g>
<g><path style="opacity:1" fill="#ba4444" d="M 437.5,409.5 C 447.48,411.441 457.48,413.274 467.5,415C 474.158,415.5 480.825,415.666 487.5,415.5C 487.5,426.167 487.5,436.833 487.5,447.5C 474.167,447.5 460.833,447.5 447.5,447.5C 448.632,433.89 445.299,421.223 437.5,409.5 Z"/></g>
<g><path style="opacity:1" fill="#adb9b9" d="M 205.5,447.5 C 189.833,448.5 182.5,441.167 183.5,425.5C 194.611,421.148 202.444,424.481 207,435.5C 207.809,439.695 207.309,443.695 205.5,447.5 Z"/></g>
<g><path style="opacity:1" fill="#adb9b9" d="M 413.5,447.5 C 397.833,448.5 390.5,441.167 391.5,425.5C 402.611,421.148 410.444,424.481 415,435.5C 415.809,439.695 415.309,443.695 413.5,447.5 Z"/></g>
<g><path style="opacity:1" fill="#9ba1a7" d="M 183.5,425.5 C 182.5,441.167 189.833,448.5 205.5,447.5C 199.468,455.844 191.802,457.677 182.5,453C 175.086,446.705 173.586,439.205 178,430.5C 179.704,428.627 181.537,426.96 183.5,425.5 Z"/></g>
<g><path style="opacity:1" fill="#9ba1a7" d="M 391.5,425.5 C 390.5,441.167 397.833,448.5 413.5,447.5C 407.468,455.844 399.802,457.677 390.5,453C 383.086,446.705 381.586,439.205 386,430.5C 387.704,428.627 389.537,426.96 391.5,425.5 Z"/></g>
</svg>
