<svg id="svg" fill="#000000" stroke="#000000" width="67" height="67" version="1.1" viewBox="143 143 514 514" xmlns="http://www.w3.org/2000/svg" stroke-width="8">
    <g id="IconSvg_bgCarrier" stroke-width="0"></g>
    <g id="IconSvg_tracerCarrier" stroke-linecap="round" stroke-linejoin="round" stroke="#CCCCCC" stroke-width="0">
      <defs xmlns="http://www.w3.org/2000/svg">
  <clipPath id="a">
   <path d="m148.09 418h503.81v185h-503.81z"></path>
  </clipPath>
 </defs>
<path xmlns="http://www.w3.org/2000/svg" d="m313.48 225.87c18.113 0 35.488 7.1953 48.297 20.008 12.809 12.809 20.004 30.18 20.004 48.293 0 18.117-7.1953 35.488-20.004 48.297s-30.184 20.004-48.297 20.004-35.488-7.1953-48.297-20.004-20.004-30.18-20.004-48.297c0-18.113 7.1953-35.484 20.004-48.293 12.809-12.812 30.184-20.008 48.297-20.008m0-28.348c-25.633 0-50.215 10.184-68.34 28.309s-28.309 42.707-28.309 68.34c0 25.633 10.184 50.219 28.309 68.344s42.707 28.305 68.34 28.305 50.215-10.18 68.34-28.305 28.309-42.711 28.309-68.344c-0.039062-25.621-10.234-50.18-28.352-68.297-18.117-18.117-42.676-28.312-68.297-28.352z"></path>
<path xmlns="http://www.w3.org/2000/svg" d="m517.21 272.58c13.41 0 26.27 5.3281 35.746 14.816 9.4766 9.4844 14.797 22.352 14.781 35.758-0.011719 13.41-5.3555 26.266-14.852 35.734-9.4961 9.4688-22.363 14.773-35.773 14.746-13.41-0.027343-26.258-5.3828-35.719-14.887-9.457-9.5039-14.75-22.379-14.711-35.789 0.039062-13.375 5.3789-26.188 14.852-35.633 9.4727-9.4453 22.301-14.746 35.676-14.746m0-28.348c-20.879 0-40.906 8.293-55.668 23.059-14.766 14.766-23.062 34.789-23.062 55.668 0 20.883 8.2969 40.906 23.062 55.672 14.762 14.766 34.789 23.059 55.668 23.059 20.879 0 40.906-8.293 55.672-23.059 14.762-14.766 23.059-34.789 23.059-55.672 0-20.879-8.2969-40.902-23.059-55.668-14.766-14.766-34.793-23.059-55.672-23.059z"></path>
<g xmlns="http://www.w3.org/2000/svg" clip-path="url(#a)">
  <path d="m623.85 452.51c-17.902-17.949-42.211-28.043-67.566-28.055h-78.289c-17.883 0.066406-35.391 5.1562-50.527 14.691-19.461-13.207-42.434-20.266-65.949-20.273h-95.914c-31.152-0.0625-61.059 12.25-83.137 34.227-21.996 22.02-34.355 51.863-34.371 82.988v15.715c-0.039062 13.453 5.2891 26.367 14.801 35.879 9.5117 9.5117 22.422 14.836 35.875 14.797h229.43c9.4492 0.027344 18.715-2.6016 26.742-7.5859 8.0234-4.9883 14.484-12.133 18.645-20.613h137.04c10.945 0 21.445-4.3516 29.184-12.09 7.7422-7.7422 12.09-18.238 12.09-29.188v-12.336c0.14844-25.559-9.957-50.109-28.055-68.156zm-173.32 99.293c0 5.9375-2.3477 11.629-6.5312 15.84s-9.8594 6.5977-15.797 6.6367h-229.43c-5.9375-0.039063-11.613-2.4258-15.797-6.6367s-6.5312-9.9023-6.5312-15.84v-15.715c0.039063-23.605 9.4531-46.23 26.176-62.898 16.719-16.664 39.375-26.004 62.984-25.965h96.062-0.003906c23.633 0 46.297 9.3984 62.996 26.121 16.695 16.727 26.055 39.402 26.016 63.035zm173.03-18.801c0 3.4297-1.3633 6.7188-3.7852 9.1406-2.4258 2.4258-5.7109 3.7852-9.1406 3.7852h-132.2v-9.8398c-0.14844-28.41-10.582-55.805-29.375-77.113 8.832-4.1016 18.461-6.207 28.199-6.168h78.289c18.07-0.19922 35.461 6.8828 48.254 19.648 12.793 12.762 19.914 30.137 19.754 48.211z"></path>
 </g>

      </g>
     <g id="IconSvg_iconCarrier">
      <defs xmlns="http://www.w3.org/2000/svg">
  <clipPath id="a">
   <path d="m148.09 418h503.81v185h-503.81z"></path>
  </clipPath>
 </defs>
<path xmlns="http://www.w3.org/2000/svg" d="m313.48 225.87c18.113 0 35.488 7.1953 48.297 20.008 12.809 12.809 20.004 30.18 20.004 48.293 0 18.117-7.1953 35.488-20.004 48.297s-30.184 20.004-48.297 20.004-35.488-7.1953-48.297-20.004-20.004-30.18-20.004-48.297c0-18.113 7.1953-35.484 20.004-48.293 12.809-12.812 30.184-20.008 48.297-20.008m0-28.348c-25.633 0-50.215 10.184-68.34 28.309s-28.309 42.707-28.309 68.34c0 25.633 10.184 50.219 28.309 68.344s42.707 28.305 68.34 28.305 50.215-10.18 68.34-28.305 28.309-42.711 28.309-68.344c-0.039062-25.621-10.234-50.18-28.352-68.297-18.117-18.117-42.676-28.312-68.297-28.352z"></path>
<path xmlns="http://www.w3.org/2000/svg" d="m517.21 272.58c13.41 0 26.27 5.3281 35.746 14.816 9.4766 9.4844 14.797 22.352 14.781 35.758-0.011719 13.41-5.3555 26.266-14.852 35.734-9.4961 9.4688-22.363 14.773-35.773 14.746-13.41-0.027343-26.258-5.3828-35.719-14.887-9.457-9.5039-14.75-22.379-14.711-35.789 0.039062-13.375 5.3789-26.188 14.852-35.633 9.4727-9.4453 22.301-14.746 35.676-14.746m0-28.348c-20.879 0-40.906 8.293-55.668 23.059-14.766 14.766-23.062 34.789-23.062 55.668 0 20.883 8.2969 40.906 23.062 55.672 14.762 14.766 34.789 23.059 55.668 23.059 20.879 0 40.906-8.293 55.672-23.059 14.762-14.766 23.059-34.789 23.059-55.672 0-20.879-8.2969-40.902-23.059-55.668-14.766-14.766-34.793-23.059-55.672-23.059z"></path>
<g xmlns="http://www.w3.org/2000/svg" clip-path="url(#a)">
  <path d="m623.85 452.51c-17.902-17.949-42.211-28.043-67.566-28.055h-78.289c-17.883 0.066406-35.391 5.1562-50.527 14.691-19.461-13.207-42.434-20.266-65.949-20.273h-95.914c-31.152-0.0625-61.059 12.25-83.137 34.227-21.996 22.02-34.355 51.863-34.371 82.988v15.715c-0.039062 13.453 5.2891 26.367 14.801 35.879 9.5117 9.5117 22.422 14.836 35.875 14.797h229.43c9.4492 0.027344 18.715-2.6016 26.742-7.5859 8.0234-4.9883 14.484-12.133 18.645-20.613h137.04c10.945 0 21.445-4.3516 29.184-12.09 7.7422-7.7422 12.09-18.238 12.09-29.188v-12.336c0.14844-25.559-9.957-50.109-28.055-68.156zm-173.32 99.293c0 5.9375-2.3477 11.629-6.5312 15.84s-9.8594 6.5977-15.797 6.6367h-229.43c-5.9375-0.039063-11.613-2.4258-15.797-6.6367s-6.5312-9.9023-6.5312-15.84v-15.715c0.039063-23.605 9.4531-46.23 26.176-62.898 16.719-16.664 39.375-26.004 62.984-25.965h96.062-0.003906c23.633 0 46.297 9.3984 62.996 26.121 16.695 16.727 26.055 39.402 26.016 63.035zm173.03-18.801c0 3.4297-1.3633 6.7188-3.7852 9.1406-2.4258 2.4258-5.7109 3.7852-9.1406 3.7852h-132.2v-9.8398c-0.14844-28.41-10.582-55.805-29.375-77.113 8.832-4.1016 18.461-6.207 28.199-6.168h78.289c18.07-0.19922 35.461 6.8828 48.254 19.648 12.793 12.762 19.914 30.137 19.754 48.211z"></path>
 </g>

      </g>
      </svg>